<?xml version="1.0" encoding="UTF-8"?>
<svg id="Layer_2" data-name="Layer 2" xmlns="http://www.w3.org/2000/svg" viewBox="0 0 228.31 43.44">
  <defs>
    <style>
      .cls-1 {
        fill: #231f20;
      }

      .cls-2 {
        fill: #ed1c24;
      }

      .cls-3 {
        fill: #1c75bc;
      }
    </style>
  </defs>
  <g id="Layer_1-2" data-name="Layer 1">
    <g>
      <path class="cls-1" d="M85.33,32.86c-.14.19-.47.17-.64.17-.14,0-1.39-.11-1.51-.11h-2.76c-1.17,1.16-2.38,2.72-2.36,3.97.04,1.75,2.1,2.07,2.89,2.07,1.35-.02,2.28-.45,3.65-1.21,0,0,.09.06.16.06l-.02.19c-1.62,1.34-3.29,2.08-4.7,2.08-1.1,0-3.32-.51-3.36-2.42-.03-1.55,1.5-3.09,3.03-4.65l-5.04.25c-.17.02-.4.02-.4-.22,0-.2.39-1.05.75-1.05h5.58c.33-.34.63-.69.92-.89.34,0,.43.08.48.08-.17.22-.42.5-.7.78.97.13,3.04.1,3.78.44.11.06.17.29.24.47"/>
      <path class="cls-1" d="M91.7,38.79c-.3.28-2.07,1.46-2.76,1.46-.52,0-.76-.57-.77-.81l-.03-1.37c0-.13-.1-.21-.23-.21-.53,0-2.35,2.11-3.24,2.09-.58,0-.63-.76-.63-1.02,0-.3-.03-.53.33-1.01,1.26-1.63,2.47-3.25,3.86-4.83.1-.12.43-.34.58-.34.33,0,.27.18.27.35,0,.13-.11.66-.23.92-.27.54-.55,1.04-1.31,1.77-.29.27-2.3,1.56-2.29,2.27.01.13.14.78.56.8.29,0,.82-.43,1.23-.75.33-.27.76-.6,1.15-.85.18-.12.54-.29.88-.23.34.23.29.56.34.84.05.41.04.89.05,1.32.05.07.15.17.19.22.56.05,1.21-.33,1.79-.83h.21s.06.14.02.2"/>
      <path class="cls-1" d="M93.25,37.07c-.45,0-1.41.55-1.52,1.14.06,0,1.91-.19,1.9-.84,0-.18-.11-.31-.37-.31M95.98,38.61c-1.22.76-2.3,1.41-3.39,1.41-.66,0-1.88-.26-1.9-1.22-.04-1.29,2.63-2.21,3.21-2.23.47,0,.71.26.72.57.02,1.13-2.86,1.34-2.92,1.37.2.62,1.15.68,1.62.68.76,0,1.77-.36,2.66-.77v.21"/>
      <path class="cls-1" d="M108.27,40.3c-.59.08-1.88.23-2.26.23-1.49,0-3.48-.39-4.19-1.53,0-.05.04-.14.03-.19h.2c.9,1.17,2.74,1.34,3.86,1.34,1.96,0,4.86-.58,6.45-3.02.24-.4.41-.88.39-1.33,0-1.68-1.9-2.04-2.79-2.04-2.74-.01-6.56,2.1-8.9,4.93-.34.4-1.82,4.76-3.01,4.76-.3,0-.79-.22-.8-.57,0-.75,3.38-4.3,3.47-4.43.42-.76.81-1.73,1.19-2.6l-.03-.08c-.23.15-.64.27-.74.27-.36,0-1.31-.54-1.49-.94.28.03.41.01.55.01,1.04,0,2.54-1.28,3.19-2.33.03,0,.17.07.22.14.11.34.27,1.17.27,1.3,0,.61-.93.81-1.4,1.32-.13.15-.25.5-.35.69-.22.53-.62,1.14-.64,1.54,2.54-2.48,6.45-4.98,9.49-4.98,1.27,0,3.23.62,3.26,2.47.05,2.65-4.16,4.82-5.96,5.05"/>
      <path class="cls-1" d="M119.84,38.24c-.4.59-2.33,1.77-3.32,1.77-.23,0-1.28-.3-1.29-.75,0-.24.95-.75,1.07-.94-.09-.26-1.01-.58-1.04-.58-.15,0-.55.34-.77.45,0,0-.09-.07-.15-.09.12-.15.36-.35.54-.53.03-.04-.1-.14-.09-.27.09-.19,1.04-1.11,1.4-1.11.15,0,.18.07.24.12l-.02.18c0,.15-.13.28-.33.47.15.19,1.17.46,1.18.81,0,.5-.79.49-.8.92,0,.5.91.5.94.5.68,0,1.51-.51,2.13-.93h.29"/>
      <path class="cls-1" d="M121.57,35.63c-.25,0-.88-.2-.89-.49.02-.29.66-.61.72-.63.14,0,.82.47,1.22.64-.2.37-.77.47-1.05.47M119.88,40.01c-.77,0-1.17-.34-1.19-.99,0-.13.03-.44.11-.66.06-.08,1.67-1.62,1.97-1.62.14,0,.2.06.26.06v.19c-.51.44-1.14,1.05-1.13,1.51.02.59.62.67.85.67.76,0,1.42-.47,2.11-.88l.09.07v.21c-.66.48-2.09,1.43-3.08,1.43"/>
      <path class="cls-1" d="M130.18,38.56c-.89.61-2.01,1.45-2.9,1.45-.78,0-1.52-.5-1.18-1.75,0,0,.03-.02-.03-.08-1.04.88-2.08,1.83-3.02,1.83-.67,0-1.19-.39-1.2-1.02-.03-1.57,3.05-2.25,3.63-2.24.13,0,.46.06.65.05,0,.06.06.2.06.26-.03.05-.09.13-.24.13s-.32-.06-.44-.06c-.54,0-2.31.57-2.29,1.48,0,.48.49.48.64.46.75,0,1.91-.79,2.44-1.43.43-.54.64-1.29.99-1.92.14-.26,1.89-2.96,2.43-2.98.21,0,.28.47.28.5.05,2.13-3.09,3.04-3.06,4.82,0,.81.62,1.13,1.18,1.13.79,0,1.33-.61,1.96-.89l.06.07v.21"/>
      <path class="cls-1" d="M131.62,37.07c-.44,0-1.41.55-1.52,1.14.06,0,1.91-.19,1.9-.84,0-.18-.11-.31-.37-.31M134.35,38.61c-1.21.76-2.29,1.41-3.38,1.41-.66,0-1.87-.26-1.91-1.22-.03-1.29,2.64-2.21,3.21-2.23.48,0,.71.26.72.57.02,1.13-2.86,1.34-2.92,1.37.19.62,1.15.68,1.6.68.78,0,1.78-.36,2.67-.77v.21"/>
      <path class="cls-1" d="M142.17,38.02c-.39,1.4-2.13,1.99-3.2,2.01-.47,0-1.52-.19-1.54-.99-.02-1.06,1.5-1.88,2.41-2.08.07-.04.11-.1.25-.1h.45s-.06.15-.11.2c-.29.09-1.75.33-1.77,1.26.02.79,1.21.86,1.43.86.5,0,1.3-.21,1.77-1.13-.46-.04-.92-.16-1.42-.26.15-.34.35-.74.57-1.04.68.28,1.34.72,2.13.72.12,0,.45-.03.79-.1-.22.45-1.28.56-1.75.65"/>
      <path class="cls-1" d="M145.69,37.4c.13.17.64.13.86.13.14,0,.75-.04,1.47-.04-.59.65-2.02.41-2.87.63-.15.02-.48.42-.54.72-.05.22.08.99.06,1.49,0,.14-.71,3.09-1.4,3.09-.43,0-.37-.67-.37-.79-.01-.53.14-1.79.45-2.53.2-.45.85-1.64.85-1.75,0-.11-.09-.2-.21-.32-.33-.01-.75-.08-1.08-.18,0-.06.06-.2.12-.23.08-.1.9-.48,1.02-.48.14,0,.65.17.8.17.12,0,1.93-3.19,2.51-4.19.12-.19.5-.35.56-.37.31,0,.28.33.28.43.02,1.41-.93,2.51-2.52,4.23"/>
      <path class="cls-1" d="M168.61,37.89c-.59.82-1.85,1.96-2.72,1.96s-1-1.32-1.18-1.73c-.12-.35-.25-.97-.42-1.46-.38-1.18-.39-2.07-1.04-2.94-.32-.45-.8-.48-1.08-.48-1.83,0-3.99,2.14-5.29,2.9,1.72.26,2.56.21,3.67.19.12,0,1.41.02,2.13-.07.19-.01.65-.14.79-.14h.19l-.02.12c.01.07-.1.21-.15.25-.97.63-2.87.78-4.29.8-.13,0-1.6-.03-2.27-.08-.31-.01-1.03-.16-1.17-.16-.05,0-3.25,3.28-4.62,3.28-.27,0-.55-.17-.55-.35,0-.39,3.24-2.49,4.16-3.17-.16-.12-.45-.21-.66-.31l-.03-.21c.25-.21.97-.68,1.13-.68.12,0,.73.34.86.34.04,0,5.83-4,7.23-4,2.14,0,2.55,6.93,3.55,6.93.51,0,1.04-.83,1.61-1.16.06.06.14.09.19.13"/>
      <path class="cls-1" d="M171.05,37.4c.12.17.65.13.85.13.14,0,.75-.04,1.47-.04-.59.65-2.02.41-2.88.63-.14.02-.46.42-.52.72-.06.22.05.99.05,1.49,0,.14-.71,3.09-1.4,3.09-.43,0-.36-.67-.37-.79-.01-.53.13-1.79.44-2.53.2-.45.85-1.64.84-1.75,0-.11-.08-.2-.19-.32-.34-.01-.75-.08-1.07-.18-.01-.06.05-.2.11-.23.08-.1.91-.48,1.03-.48.15,0,.66.17.8.17.11,0,1.93-3.19,2.51-4.19.12-.19.49-.35.56-.37.31,0,.27.33.27.43.03,1.41-.93,2.51-2.5,4.23"/>
      <path class="cls-1" d="M177.93,38.24c-.38.59-2.24,1.77-3.2,1.77-.23,0-1.23-.3-1.24-.75,0-.24.92-.75,1.03-.94-.08-.26-.96-.58-1-.58-.14,0-.54.34-.75.45,0,0-.08-.07-.14-.09.1-.15.34-.35.54-.53.02-.04-.11-.14-.1-.27.1-.19.99-1.11,1.35-1.11.16,0,.18.07.24.12v.18c-.01.15-.15.28-.34.47.15.19,1.13.46,1.14.81,0,.5-.77.49-.78.92,0,.5.89.5.89.5.68,0,1.48-.51,2.07-.93h.27"/>
      <path class="cls-1" d="M179.81,35.63c-.24,0-.88-.2-.88-.49.02-.29.66-.61.72-.63.15,0,.81.47,1.21.64-.2.37-.77.47-1.05.47M178.11,40.01c-.77,0-1.17-.34-1.17-.99,0-.13.03-.44.11-.66.06-.08,1.67-1.62,1.97-1.62.14,0,.21.06.27.06v.19c-.51.44-1.14,1.05-1.13,1.51.02.59.61.67.84.67.77,0,1.43-.47,2.13-.88l.08.07v.21c-.65.48-2.08,1.43-3.08,1.43"/>
      <path class="cls-1" d="M181.83,40.01c-.46,0-1.52-.24-1.54-1.13-.03-1.44,3.05-2.08,3.66-2.08.15,0,.28.01.45.12l.02.31c-.17.1-.38.12-.51.12-.14,0-.64-.05-.76-.04-.44,0-1.62.18-1.6,1.01,0,.74.9.87,1.22.87.13,0,.39-.04.54-.07.66-.19,1.86-.82,2.01-.82h.29v.2c-.59.41-2.67,1.51-3.77,1.51"/>
      <path class="cls-1" d="M188.79,37.69c-.01-.32-.28-.38-.61-.38-.55,0-2.21.48-2.2,1.35.01.24.32.44.55.44.21,0,2.26-.71,2.26-1.4h0ZM192.36,38.39c-.12.45-2.3,1.59-3.04,1.57-.38,0-.76-.15-.78-.49,0-.41.45-.66.73-1.1v-.14c-.07-.06-.07-.09-.19-.1-.28,0-2.56,1.89-3.69,1.89-.52,0-.95-.3-.95-.76-.04-1.49,2.86-2.23,3.58-2.21.13,0,.5.04.74.11.24-.27.11-.57.57-.57.6,0,.26.79.31,1.02,0,0,.03.04.09.09.76.39.38.94.69,1.32.72-.06,1.1-.42,1.82-.67l.12.02"/>
      <path class="cls-2" d="M27.54,29.02c-7.73,6.29-17.86,6.64-22.61.79C.16,23.96,2.57,14.12,10.29,7.83c7.73-6.29,17.84-6.64,22.61-.79,4.76,5.85,2.36,15.69-5.36,21.98M33.32,5.71C27.44-1.53,15.98-1.94,7.71,4.79-.55,11.51-2.48,22.82,3.41,30.05c5.88,7.23,17.35,7.65,25.61.92,8.26-6.72,10.18-18.04,4.29-25.26"/>
      <path class="cls-2" d="M29.72,13.28c1.99-2.75.89-9.12-.36-7.19-1.07,1.68-6.53,5.26-11.35,8.14,0,0,1.18-3.07,2.18-5.54,1.02-2.47-3.52-1.44-6.14-.1-.24.13-2.33,1.42-2.51,2.24,1.09-.19,1.73-.27,1.6.02-.08.19-.17.39-.26.6-.8,1.9-1.89,4.48-2.97,7.04-2.52,6.98-1.26,10.14-1.26,10.14l6.73.28s-1.68-.71-.97-4.55c.7-3.78,1.74-4.35,1.96-4.44.39,1.62,2.85,8.16,8.46,11.97,6.78,4.61,11.46,2.3,13.27.46,1.82-1.84,1.82-5.53,1.82-5.53,0,0-5.16,4.15-10.41.57-3.62-2.46-8.64-6.88-10.57-8.55.33-.14,7.39-.89,10.79-5.57"/>
      <polyline class="cls-2" points="46.29 11.4 50.22 11.4 48.77 18.32 48.82 18.32 54.22 11.4 57.32 11.4 52.25 17.87 56.89 25.98 52.42 25.98 48.69 19.06 48.65 19.06 47.29 25.98 43.36 25.98"/>
      <path class="cls-2" d="M63.98,18.05c0-.52-.31-.83-.81-.83-1.27,0-2.12,1.81-2.29,2.86,1.85.05,3.11-.6,3.11-2.04M67.08,25.01c-1.92.69-3.82,1.21-5.76,1.21-2.24,0-4.64-1.11-4.64-3.65,0-3.16,2.77-7.77,7.85-7.77,1.39,0,2.99.75,2.99,2.45,0,3.16-4.13,5.1-6.91,5.02.02,1.16.91,1.65,2,1.65,1.48,0,3.72-.88,5.04-1.59"/>
      <path class="cls-2" d="M73.24,19.67h.25c.81-1.85,2.89-4.86,5.14-4.86,1.39,0,2.2,1.01,2.2,2.28,0,.53-.14,1.05-.24,1.57l-1.49,7.32h-3.9l1.37-6.85c.02-.14.1-.39.1-.55,0-.12-.04-.33-.23-.33-.7,0-3.1,3.53-3.49,4.32l-.68,3.41h-3.93l2.2-10.93h3.88"/>
      <polyline class="cls-2" points="83.99 25.98 81.89 15.05 85.89 15.05 87.11 21.44 91.48 15.05 94.47 15.05 84.3 29.87 80.24 29.87"/>
      <path class="cls-2" d="M100.76,17.41c-.36-.2-.82-.36-1.26-.36-2.36,0-3.28,4.25-3.28,5.28,0,.28.1.62.45.62,1.07,0,2.99-3.19,3.86-4.43l.23-1.11ZM100.21,21.36h-.24c-.83,1.85-2.88,4.86-5.15,4.86-1.59,0-2.52-1.43-2.52-2.88,0-3.53,3.49-8.47,7.34-8.47.91,0,1.54.18,1.83.18h3.67l-2.19,10.93h-3.89"/>
      <path class="cls-2" d="M118.11,20.03l-.96-5.08h-.04l-2.73,5.08h3.72ZM116.29,11.4h3.89l2.84,14.58h-3.75l-.71-3.65h-5.43l-1.96,3.65h-2.79"/>
      <path class="cls-2" d="M126.93,11.33h3.92l-.46,2.16h-3.93l.47-2.16ZM126.13,15.05h3.93l-2.2,10.93h-3.94"/>
      <path class="cls-2" d="M134.72,19.67h.24c.82-1.85,2.89-4.86,5.15-4.86.44,0,.81.12,1,.22l-1.39,3.39c-.27-.14-.56-.26-.86-.26-1.98,0-3.68,3.15-4.46,4.42l-.68,3.41h-3.93l2.2-10.93h3.88"/>
      <polyline class="cls-2" points="141.98 15.05 145.42 15.05 145.66 21.99 145.71 21.99 149.16 15.05 152.44 15.05 152.74 22 152.77 22 156.26 15.05 159.01 15.05 153.5 25.98 149.75 25.98 149.47 19.39 149.43 19.39 146.15 25.98 142.41 25.98"/>
      <path class="cls-2" d="M165.74,17.41c-.37-.2-.82-.36-1.26-.36-2.36,0-3.27,4.25-3.27,5.28,0,.28.1.62.45.62,1.08,0,3-3.19,3.87-4.43l.22-1.11ZM165.2,21.36h-.25c-.82,1.85-2.89,4.86-5.14,4.86-1.59,0-2.52-1.43-2.52-2.88,0-3.53,3.5-8.47,7.33-8.47.92,0,1.55.18,1.85.18h3.67l-2.19,10.93h-3.9"/>
      <polyline class="cls-2" points="173.57 25.98 171.46 15.05 175.49 15.05 176.7 21.44 181.07 15.05 184.04 15.05 173.88 29.87 169.83 29.87"/>
      <path class="cls-2" d="M191.89,17.49c-.79-.28-1.62-.51-2.46-.51-.65,0-1.54.2-1.54,1.01,0,1.29,3.39,2.22,3.39,4.59,0,1.45-.97,3.63-5.15,3.63-1.38,0-2.66-.26-4.02-.6l.5-2.56c.98.42,2.46.99,3.52.99.53,0,1.22-.34,1.22-1.05,0-1.5-3.15-2.42-3.15-4.81,0-1.29.9-3.38,5.08-3.38,1.03,0,2.13.2,3.08.32"/>
      <path class="cls-3" d="M214.75,39.74c-3.47.17-6.71-1-9.19-3.06v.02c2.56,2.51,6.12,3.98,9.99,3.8,7.39-.36,13.1-6.67,12.74-14.08-.18-3.75-1.88-7.07-4.47-9.38h-.01c2.15,2.27,3.52,5.28,3.69,8.64.36,7.41-5.35,13.72-12.75,14.08"/>
      <path class="cls-3" d="M199.73,31.8c-.43.23-.53.58-.32,1.14.19.51.5.74.84.6.27-.1.33-.33.22-.94l-.04-.24c-.1-.6-.11-.86-.03-1.11.08-.29.25-.47.5-.57.61-.23,1.17.16,1.49,1.02.35.93.14,1.62-.59,1.91l-.17-.46c.51-.21.64-.67.39-1.35-.21-.55-.55-.8-.92-.66-.3.11-.37.39-.27,1.01l.03.27.03.23c.07.46.07.63.03.82-.07.25-.23.42-.48.52-.57.21-1.12-.13-1.4-.91-.32-.84-.12-1.46.52-1.73"/>
      <polyline class="cls-3" points="199.46 26.94 201.53 25.26 201.53 25.9 199.77 27.29 200.32 27.92 201.53 27.92 201.53 28.42 198.07 28.42 198.07 27.92 199.43 27.92 199.62 27.93 199.8 27.93 199.68 27.8 199.57 27.67 198.07 25.99 198.07 25.33"/>
      <path class="cls-3" d="M201.1,21.6l1.32.5-.17.46-1.32-.5-2.4.68.21-.57,1.49-.38.18-.05c.08-.02.12-.03.25-.05-.12-.14-.14-.17-.26-.35l-.88-1.26.2-.54"/>
      <polyline class="cls-3" points="203.58 15.29 202.83 16.17 204.97 18.01 204.43 18.64 202.29 16.81 201.54 17.68 201.06 17.26 203.09 14.88"/>
      <polyline class="cls-3" points="208.32 12.1 206.55 13.1 206.91 13.74 208.53 12.83 208.81 13.35 207.19 14.26 207.61 15.01 209.4 14 209.72 14.55 207.2 15.97 205.51 12.93 208.01 11.54"/>
      <path class="cls-3" d="M214.98,13.6l-.91.04-.43-.77-1.4.21-.21.84-.86.2.98-3.77.86-.11,1.97,3.36ZM213.04,11.77c-.18-.32-.25-.46-.36-.71-.03.25-.07.43-.16.79l-.16.66,1.01-.15"/>
      <path class="cls-3" d="M220.51,14.83l-.72-.3.3-1.03c.03-.11.08-.28.14-.49.06-.22.12-.39.15-.51.05-.14.09-.28.14-.44l.09-.24c-.21.34-.3.46-.49.74-.08.12-.15.23-.21.31l-1.01,1.36-.62-.19-.16-1.65c-.01-.09-.02-.21-.03-.37,0-.22-.01-.39-.02-.5,0-.09,0-.23.01-.42l-.1.42c-.11.46-.16.65-.31,1.19l-.31,1.11-.76-.14.94-3.38,1.16.26.13,1.61c.03.38.03.69.01,1.14.13-.25.18-.33.34-.56.11-.16.19-.28.27-.41l.94-1.29,1.1.4"/>
      <path class="cls-3" d="M213.76,21.36c-.43.36-1.28,1.13-2.09,1.89l-.93.85c-.74-.15-1.47-.23-2.23-.24-1.68-.04-3.23.4-3.95,1.1-.27.27-.41.57-.41.88,0,.82.92,1.25,1.21,1.36,1.48.59,2.74.46,4.08-.44.74-.49,1.64-1.3,2.33-1.94.53.13,1.13.3,1.78.51l.59.19c-.79.75-1.61,1.54-2.36,2.17l-.06.06c-1.05.88-1.8,1.52-2.87,1.74-.76.15-1.3-.02-1.47-.13-.02,0-.04.03-.04.03.61.53,1.19.83,2.21.76.96-.06,2.09-.64,3.25-1.69l1.57-1.47,1.1-1.05s2.16.69,2.16.69c.02,0,.04.01.04.01-.02,0-1.38,1.28-1.38,1.28l-1.18,1.13c-1.21,1.13-1.86,1.71-2.57,2.19-1.16.79-2.15,1.19-3.01,1.23-.45.02-1.09-.02-1.63-.35-.02,0-.05.02-.05.02.57.51,1.27,1.13,2.51,1.12,1.4-.01,2.65-.66,4.61-2.38.9-.79,1.78-1.68,2.57-2.46l1.46-1.42c.93.23,1.77.33,2.71.34,1.35,0,2.52-.62,2.55-1.37.02-.54-.42-.85-.69-1.03-.21-.15-.82-.49-1.65-.52-1.02-.02-2.09.41-3.18,1.27l-.73.62s-.26-.08-.26-.08l-1.98-.61c.6-.53,1.11-.99,1.57-1.39,1.11-.94,2.32-1.32,3.02-1.35.51-.02,1.41.04,1.77.31.02,0,.04-.04.04-.04-.96-.86-1.8-.99-2.5-1-.69-.01-1.8.18-3.17,1.2-.56.42-1.29,1.12-2.06,1.86l-1-.33-.25-.08-1.05-.34s.61-.56.61-.56c.73-.69,1.42-1.33,1.95-1.76,1.94-1.57,3.15-1.75,3.98-1.74.92.01,1.64.22,2.15.61.02,0,.04-.03.04-.03-1.05-1-1.81-1.32-3.14-1.36-1.17-.03-2.58.59-3.97,1.75M206.14,26.93c-.62-.06-.92-.31-.91-.79,0-.07.07-1.58,3.55-1.68.4,0,.84-.01,1.51.07-.03,0-.4.33-.4.33l-.22.2c-.85.74-2.27,1.99-3.53,1.87M220.19,26c1.01-.66,1.85-.99,2.37-.96.3.01.67.11.66.49-.01.39-.38.71-1.11.95-.64.21-1.61.25-2.67.11.3-.26.55-.45.75-.59"/>
    </g>
  </g>
</svg>