<svg width="177" height="35" viewBox="0 0 177 35" fill="none" xmlns="http://www.w3.org/2000/svg">
<g clip-path="url(#clip0_27_2208)">
<path d="M63.9258 5.00018H57.4321L51.519 21.2147H51.4827L45.9687 5.00018H39.2214L48.6896 30.0002H53.3695L63.9258 5.00018ZM83.3338 30.0002V25.2143H72.5235V19.5357H83.3338V14.7498H72.5235V9.78565H83.3338V5.00018H66.6467V30.0002H83.3338ZM87.6871 30.0002H93.564V20.2502H93.818L100.529 30.0002H107.857C106.152 27.7144 102.452 22.643 100.202 19.5717C102.96 18.5003 105.462 16.3575 105.462 12.6074C105.462 7.10736 100.13 5.00018 95.9579 5.00018H87.6867V30.0002H87.6871ZM93.564 9.78565H95.8132C97.8447 9.78565 99.2231 10.9644 99.2231 12.7143C99.2231 14.6428 97.4819 15.4643 95.1238 15.4643H93.564V9.78565ZM126.177 9.78565V5.00018H108.546V9.78609H114.423V30.0007H120.3V9.78565H126.177ZM145.585 30.0002V25.2143H134.774V19.5357H145.585V14.7498H134.774V9.78565H145.585V5.00018H128.898V30.0002H145.585ZM155.815 30.0002V5.00018H149.938V30.0002H155.815ZM177 30.0002V25.2143H166.843V5.00018H160.966V30.0002H177Z" fill="#80A23F"/>
<path fill-rule="evenodd" clip-rule="evenodd" d="M29.8847 16.7716L18.5107 10.388C19.0333 12.0649 19.2426 14.9957 14.4817 22.2734C13.1378 24.3273 11.1572 27.4122 8.65928 30.2572L3.31211 33.5792C4.19357 32.5087 5.26619 30.8099 6.26447 29.5453C9.17568 25.8559 12.4219 21.741 13.1599 16.0795C13.39 14.3186 13.1883 10.5645 11.9448 6.70256L0.09381 0.0523603L0 0C0 0 1.53282 2.72978 2.80279 6.86448C3.50814 9.16129 4.13206 11.8915 4.36747 14.8294C4.97768 22.4326 2.91873 31.4523 1.38945 34.4777C1.28723 34.6788 1.18767 34.8539 1.09209 35L2.72447 33.9854L7.99951 30.7082L30.1705 16.9322L29.8851 16.7716H29.8847Z" fill="#80A23F"/>
</g>
<defs>
<clipPath id="clip0_27_2208">
<rect width="177" height="35" fill="white"/>
</clipPath>
</defs>
</svg>
