<?xml version="1.0" encoding="UTF-8"?>
<svg id="Layer_2" data-name="Layer 2" xmlns="http://www.w3.org/2000/svg" viewBox="0 0 143.51 26.46">
  <defs>
    <style>
      .cls-1 {
        fill: #ed1c24;
      }
    </style>
  </defs>
  <g id="Layer_1-2" data-name="Layer 1">
    <g>
      <polygon class="cls-1" points="35.6 .56 38.5 .56 37.44 5.67 37.47 5.67 41.46 .56 43.74 .56 40.01 5.33 43.43 11.32 40.13 11.32 37.37 6.22 37.34 6.22 36.34 11.32 33.44 11.32 35.6 .56"/>
      <path class="cls-1" d="M50.97,10.61c-1.43.51-2.83.9-4.27.9-1.65,0-3.43-.82-3.43-2.7,0-2.33,2.04-5.73,5.8-5.73,1.02,0,2.21.56,2.21,1.81,0,2.34-3.05,3.77-5.11,3.71.02.86.68,1.22,1.48,1.22,1.1,0,2.75-.65,3.73-1.17l-.41,1.98ZM48.67,5.47c0-.38-.23-.61-.6-.61-.95,0-1.56,1.34-1.69,2.11,1.36.03,2.3-.45,2.3-1.5"/>
      <path class="cls-1" d="M55.51,6.66h.18c.6-1.36,2.14-3.59,3.81-3.59,1.02,0,1.62.75,1.62,1.69,0,.39-.1.77-.18,1.16l-1.1,5.4h-2.88l1.01-5.06c.02-.11.07-.29.07-.4,0-.09-.03-.24-.17-.24-.52,0-2.3,2.61-2.58,3.19l-.51,2.52h-2.9l1.63-8.07h2.87l-.86,3.41Z"/>
      <polygon class="cls-1" points="63.45 11.32 61.91 3.25 64.86 3.25 65.76 7.98 68.99 3.25 71.18 3.25 63.68 14.21 60.68 14.21 63.45 11.32"/>
      <path class="cls-1" d="M75.44,7.92h-.18c-.6,1.37-2.13,3.59-3.81,3.59-1.17,0-1.86-1.06-1.86-2.13,0-2.6,2.58-6.25,5.42-6.25.68,0,1.14.13,1.36.13h2.72l-1.62,8.07h-2.89l.86-3.41ZM75.84,5c-.27-.15-.6-.27-.93-.27-1.74,0-2.42,3.15-2.42,3.91,0,.2.08.46.33.46.8,0,2.21-2.35,2.86-3.28l.17-.82Z"/>
      <path class="cls-1" d="M87.31.56h2.87l2.09,10.77h-2.76l-.53-2.69h-4.01l-1.45,2.69h-2.06l5.84-10.77ZM88.66,6.93l-.7-3.75h-.03l-2.01,3.75h2.74Z"/>
      <path class="cls-1" d="M94.59,3.25h2.9l-1.62,8.07h-2.91l1.63-8.07ZM95.17.51h2.9l-.34,1.59h-2.9l.35-1.59Z"/>
      <path class="cls-1" d="M100.93,6.66h.18c.6-1.36,2.13-3.59,3.8-3.59.33,0,.6.09.74.16l-1.03,2.51c-.19-.1-.4-.2-.64-.2-1.46,0-2.72,2.33-3.29,3.26l-.51,2.52h-2.9l1.62-8.07h2.87l-.86,3.41Z"/>
      <polygon class="cls-1" points="106.3 3.25 108.84 3.25 109.02 8.37 109.05 8.37 111.6 3.25 114.02 3.25 114.25 8.39 114.28 8.39 116.85 3.25 118.88 3.25 114.8 11.32 112.03 11.32 111.83 6.46 111.8 6.46 109.38 11.32 106.61 11.32 106.3 3.25"/>
      <path class="cls-1" d="M123.45,7.92h-.18c-.6,1.37-2.13,3.59-3.8,3.59-1.18,0-1.86-1.06-1.86-2.13,0-2.6,2.59-6.25,5.42-6.25.68,0,1.14.13,1.36.13h2.71l-1.62,8.07h-2.89l.86-3.41ZM123.84,5c-.27-.15-.59-.27-.92-.27-1.75,0-2.42,3.15-2.42,3.91,0,.2.08.46.33.46.79,0,2.21-2.35,2.85-3.28l.16-.82Z"/>
      <polygon class="cls-1" points="129.64 11.32 128.08 3.25 131.05 3.25 131.95 7.98 135.18 3.25 137.37 3.25 129.86 14.21 126.87 14.21 129.64 11.32"/>
      <path class="cls-1" d="M143.17,5.06c-.59-.21-1.2-.37-1.82-.37-.48,0-1.14.14-1.14.75,0,.95,2.51,1.64,2.51,3.39,0,1.07-.72,2.68-3.8,2.68-1.02,0-1.97-.2-2.97-.45l.37-1.89c.72.32,1.81.73,2.59.73.39,0,.9-.25.9-.77,0-1.1-2.33-1.79-2.33-3.55,0-.95.66-2.5,3.76-2.5.75,0,1.56.16,2.27.24l-.34,1.74Z"/>
      <path class="cls-1" d="M94.59,3.25h2.9l-1.62,8.07h-2.91l1.63-8.07ZM95.17.51h2.9l-.34,1.59h-2.9l.35-1.59Z"/>
      <path class="cls-1" d="M100.93,6.66h.18c.6-1.36,2.13-3.59,3.8-3.59.33,0,.6.09.74.16l-1.03,2.51c-.19-.1-.4-.2-.64-.2-1.46,0-2.72,2.33-3.29,3.26l-.51,2.52h-2.9l1.62-8.07h2.87l-.86,3.41Z"/>
      <polygon class="cls-1" points="106.3 3.25 108.84 3.25 109.02 8.37 109.05 8.37 111.6 3.25 114.02 3.25 114.25 8.39 114.28 8.39 116.85 3.25 118.88 3.25 114.8 11.32 112.03 11.32 111.83 6.46 111.8 6.46 109.38 11.32 106.61 11.32 106.3 3.25"/>
      <path class="cls-1" d="M123.45,7.92h-.18c-.6,1.37-2.13,3.59-3.8,3.59-1.18,0-1.86-1.06-1.86-2.13,0-2.6,2.59-6.25,5.42-6.25.68,0,1.14.13,1.36.13h2.71l-1.62,8.07h-2.89l.86-3.41ZM123.84,5c-.27-.15-.59-.27-.92-.27-1.75,0-2.42,3.15-2.42,3.91,0,.2.08.46.33.46.79,0,2.21-2.35,2.85-3.28l.16-.82Z"/>
      <polygon class="cls-1" points="129.64 11.32 128.08 3.25 131.05 3.25 131.95 7.98 135.18 3.25 137.37 3.25 129.86 14.21 126.87 14.21 129.64 11.32"/>
      <path class="cls-1" d="M143.17,5.06c-.59-.21-1.2-.37-1.82-.37-.48,0-1.14.14-1.14.75,0,.95,2.51,1.64,2.51,3.39,0,1.07-.72,2.68-3.8,2.68-1.02,0-1.97-.2-2.97-.45l.37-1.89c.72.32,1.81.73,2.59.73.39,0,.9-.25.9-.77,0-1.1-2.33-1.79-2.33-3.55,0-.95.66-2.5,3.76-2.5.75,0,1.56.16,2.27.24l-.34,1.74Z"/>
      <path class="cls-1" d="M90.3,25.36h5.99l-3.68-3.84c3.73.28,3.99-.84,4.43-3.03.25-1.27.66-2.99-1.49-2.99-1.09,0-3.48-.02-6.11-.02h-4.08l-.39,2.27h3.19c2.26,0,2.67.19,2.49,1.15-.25,1.36-.64,1.6-2.69,1.6h-3.46l5.78,4.86Z"/>
      <polygon class="cls-1" points="84.11 15.48 78.1 15.48 76.29 25.36 82.41 25.36 82.89 22.74 84.11 15.48"/>
      <polygon class="cls-1" points="64.98 17.38 67.21 21.67 62.97 21.67 61.5 23.58 68.12 23.58 69.06 25.28 75.29 25.28 69.83 15.41 60.56 15.41 52.23 25.28 58.59 25.28 64.98 17.38"/>
      <path class="cls-1" d="M140.12,15.34h-16.92c-.99,0-1.96.89-2.17,1.99l-1.15,6.03c-.21,1.1.43,1.99,1.42,1.99h16.91c.99,0,1.96-.89,2.17-1.99l1.15-6.03c.21-1.1-.43-1.99-1.42-1.99M135.23,18.27l-.67,4c-.08.43-.42.79-.76.79h-7.49c-.34,0-.57-.35-.49-.79l.68-4c.07-.44.41-.79.76-.79h7.49c.34,0,.57.35.49.79"/>
      <path class="cls-1" d="M119.25,17.63c.21-1.1-.43-2.17-1.42-2.17h-16.92c-.99,0-1.97.89-2.17,1.99l-1.16,6.03c-.21,1.1.42,1.99,1.41,1.99h16.92c.99,0,1.96-.89,2.17-1.99l.64-3.3h-10.9l-.21,1.71h4.69l-.05.49c-.08.43-.42.79-.76.79h-7.49c-.35,0-.56-.36-.49-.79l.68-4c.08-.44.42-.79.76-.79l14.29.03Z"/>
      <path class="cls-1" d="M46.41,21.54l-.11.67c-.07.44-.41.79-.75.79h-7.48c-.35,0-.57-.35-.5-.79l.65-4.01c.07-.43.41-.78.76-.78l14.28.02c.21-1.1-.43-2.15-1.42-2.15h-16.92c-.99,0-1.96.89-2.16,1.99l-1.12,6.03c-.2,1.09.44,1.99,1.43,1.99h16.92c.99,0,1.96-.89,2.16-1.99l.32-1.7-6.05-.06Z"/>
      <path class="cls-1" d="M24.66,4.22C20.31-1.13,11.82-1.43,5.7,3.54-.41,8.51-1.83,16.89,2.52,22.24c4.35,5.35,12.84,5.66,18.96.68,6.11-4.97,7.53-13.35,3.18-18.69M20.38,21.47c-5.72,4.65-13.21,4.91-16.73.58C.12,17.73,1.9,10.45,7.62,5.79c5.72-4.65,13.2-4.91,16.73-.58,3.52,4.33,1.75,11.61-3.97,16.26"/>
      <path class="cls-1" d="M21.99,9.83c1.47-2.04.66-6.74-.27-5.32-.79,1.24-4.83,3.89-8.4,6.03,0,0,.87-2.27,1.62-4.1.75-1.83-2.61-1.07-4.55-.08-.18.09-1.73,1.05-1.85,1.66.81-.14,1.28-.2,1.19.01-.06.15-.12.29-.19.45-.59,1.41-1.4,3.31-2.2,5.21-1.86,5.17-.93,7.5-.93,7.5l4.98.21s-1.25-.53-.72-3.37c.52-2.8,1.29-3.22,1.45-3.28.29,1.2,2.11,6.04,6.26,8.85,5.02,3.41,8.48,1.71,9.82.35,1.35-1.36,1.35-4.09,1.35-4.09,0,0-3.82,3.07-7.71.42-2.68-1.82-6.39-5.09-7.82-6.32.24-.1,5.47-.66,7.98-4.12"/>
      <path class="cls-1" d="M24.66,4.22C20.31-1.13,11.82-1.43,5.7,3.54-.41,8.51-1.83,16.89,2.52,22.24c4.35,5.35,12.84,5.66,18.96.68,6.11-4.97,7.53-13.35,3.18-18.69M20.38,21.47c-5.72,4.65-13.21,4.91-16.73.58C.12,17.73,1.9,10.45,7.62,5.79c5.72-4.65,13.2-4.91,16.73-.58,3.52,4.33,1.75,11.61-3.97,16.26"/>
      <path class="cls-1" d="M21.99,9.83c1.47-2.04.66-6.74-.27-5.32-.79,1.24-4.83,3.89-8.4,6.03,0,0,.87-2.27,1.62-4.1.75-1.83-2.61-1.07-4.55-.08-.18.09-1.73,1.05-1.85,1.66.81-.14,1.28-.2,1.19.01-.06.15-.12.29-.19.45-.59,1.41-1.4,3.31-2.2,5.21-1.86,5.17-.93,7.5-.93,7.5l4.98.21s-1.25-.53-.72-3.37c.52-2.8,1.29-3.22,1.45-3.28.29,1.2,2.11,6.04,6.26,8.85,5.02,3.41,8.48,1.71,9.82.35,1.35-1.36,1.35-4.09,1.35-4.09,0,0-3.82,3.07-7.71.42-2.68-1.82-6.39-5.09-7.82-6.32.24-.1,5.47-.66,7.98-4.12"/>
    </g>
  </g>
</svg>