<?xml version="1.0" encoding="UTF-8"?>
<svg id="Layer_2" data-name="Layer 2" xmlns="http://www.w3.org/2000/svg" viewBox="0 0 181.93 77.7">
  <defs>
    <style>
      .cls-1 {
        fill: #eb2429;
      }

      .cls-2 {
        fill: #21b15c;
      }

      .cls-3 {
        fill: #010101;
      }
    </style>
  </defs>
  <g id="Layer_1-2" data-name="Layer 1">
    <g>
      <g>
        <g>
          <path class="cls-1" d="M77,15.79l2.92-14.67h9.23l-.4,2.02h-6.18l-.88,4.39h4.96l-.38,1.89h-4.96l-1.27,6.36h-3.05Z"/>
          <path class="cls-1" d="M94.59,15.79l.9-4.52c-.7,1.35-1.54,2.48-2.51,3.4-.97.92-1.91,1.37-2.8,1.37-.71,0-1.27-.29-1.68-.86-.41-.57-.62-1.18-.62-1.82,0-1.32.41-2.73,1.24-4.23.83-1.5,1.78-2.62,2.85-3.35s2.15-1.1,3.22-1.1c.22,0,.46.02.72.06.26.04.54.1.85.19h2.93l-2.17,10.88h-2.93ZM96.01,8.67l.36-1.8c-.23-.13-.46-.22-.69-.28-.23-.06-.46-.09-.69-.09-.59,0-1.18.25-1.77.76-.58.51-1.12,1.35-1.6,2.51-.49,1.17-.73,2.11-.73,2.83,0,.19.04.37.13.54.09.17.24.26.45.26.53,0,1.27-.56,2.22-1.66.95-1.11,1.72-2.13,2.33-3.07Z"/>
          <path class="cls-1" d="M100.2,15.79L103.32.14h2.93l-1.85,9.29c.78-1.46,1.63-2.62,2.55-3.48.92-.86,1.85-1.29,2.78-1.29.54,0,1,.18,1.37.55s.56.91.56,1.63c0,.4-.05.83-.14,1.3l-1.54,7.66h-2.93l1.49-7.46c.03-.14.05-.28.05-.42,0-.37-.14-.56-.42-.56-.46,0-1.13.54-2.01,1.63-.88,1.08-1.64,2.15-2.3,3.2l-.73,3.61h-2.93Z"/>
          <path class="cls-1" d="M119.19,15.79l.9-4.52c-.7,1.35-1.54,2.48-2.51,3.4-.97.92-1.91,1.37-2.8,1.37-.71,0-1.27-.29-1.68-.86-.41-.57-.62-1.18-.62-1.82,0-1.32.41-2.73,1.24-4.23.83-1.5,1.78-2.62,2.85-3.35s2.15-1.1,3.22-1.1c.22,0,.46.02.72.06.26.04.54.1.85.19h2.93l-2.17,10.88h-2.93ZM120.61,8.67l.36-1.8c-.23-.13-.46-.22-.69-.28-.23-.06-.46-.09-.69-.09-.59,0-1.18.25-1.77.76-.58.51-1.12,1.35-1.6,2.51-.49,1.17-.73,2.11-.73,2.83,0,.19.04.37.13.54.09.17.24.26.45.26.53,0,1.27-.56,2.22-1.66.95-1.11,1.72-2.13,2.33-3.07Z"/>
          <path class="cls-1" d="M124.8,15.79l2.17-10.88h2.93l-.9,4.52c.77-1.48,1.63-2.64,2.58-3.49.94-.85,1.81-1.27,2.59-1.27.26,0,.54.05.82.14l-.85,2.78c-.31-.15-.59-.22-.83-.22-.73,0-1.53.5-2.39,1.5s-1.68,2.11-2.45,3.32l-.73,3.61h-2.93Z"/>
          <path class="cls-1" d="M134.38,15.79l2.17-10.88h2.94l-2.18,10.88h-2.93ZM136.92,3.08l.52-2.57h2.93l-.52,2.57h-2.93Z"/>
          <path class="cls-1" d="M77,36.16l2.92-14.67h3.05l-2.92,14.67h-3.05Z"/>
          <path class="cls-1" d="M82.79,36.16l2.17-10.88h2.93l-.9,4.52c.78-1.46,1.63-2.62,2.55-3.48.92-.86,1.84-1.29,2.78-1.29.54,0,1,.18,1.37.55.37.36.56.91.56,1.63,0,.4-.05.83-.14,1.3l-1.54,7.66h-2.93l1.49-7.46c.03-.14.05-.28.05-.42,0-.37-.14-.56-.42-.56-.46,0-1.13.54-2.01,1.63-.88,1.08-1.64,2.15-2.3,3.2l-.73,3.61h-2.93Z"/>
          <path class="cls-1" d="M95.18,36.16l2.17-10.88h2.93l-.9,4.52c.78-1.46,1.63-2.62,2.55-3.48.92-.86,1.84-1.29,2.78-1.29.54,0,1,.18,1.37.55.37.36.56.91.56,1.63,0,.4-.05.83-.14,1.3l-1.54,7.66h-2.93l1.49-7.46c.03-.14.05-.28.05-.42,0-.37-.14-.56-.42-.56-.46,0-1.13.54-2.01,1.63-.88,1.08-1.64,2.15-2.3,3.2l-.73,3.61h-2.93Z"/>
          <path class="cls-1" d="M111.57,36.41c-1.24,0-2.23-.34-2.98-1.01-.74-.67-1.11-1.55-1.11-2.63,0-1.27.34-2.55,1.03-3.83.69-1.28,1.55-2.25,2.6-2.91,1.05-.67,2.21-1,3.48-1s2.32.34,3.05,1.01c.73.67,1.1,1.55,1.1,2.63,0,1.28-.34,2.55-1.03,3.82-.68,1.27-1.54,2.24-2.57,2.91-1.03.67-2.22,1.01-3.58,1.01ZM112.2,34.51c.67,0,1.25-.24,1.75-.71.5-.47.91-1.14,1.23-1.99.32-.86.49-1.73.49-2.62,0-.74-.14-1.3-.43-1.68-.29-.38-.7-.57-1.24-.57-.62,0-1.18.23-1.69.7-.51.47-.92,1.13-1.25,1.99-.33.86-.49,1.74-.49,2.65,0,.73.15,1.28.44,1.66.29.38.69.57,1.2.57Z"/>
          <path class="cls-1" d="M121.67,36.16l-1.68-10.88h2.91l1.2,7.97,4.82-7.97h2.37l-6.64,10.88h-2.97Z"/>
          <path class="cls-1" d="M136.91,36.16l.9-4.52c-.7,1.35-1.54,2.48-2.51,3.4-.97.92-1.91,1.37-2.8,1.37-.71,0-1.27-.29-1.68-.86-.41-.57-.62-1.18-.62-1.82,0-1.32.41-2.73,1.24-4.23.83-1.5,1.78-2.62,2.85-3.35s2.15-1.1,3.22-1.1c.22,0,.46.02.72.06.26.04.54.1.85.19h2.93l-2.17,10.88h-2.93ZM138.33,29.04l.36-1.8c-.23-.13-.46-.22-.69-.28-.23-.06-.46-.09-.69-.09-.59,0-1.18.25-1.77.76-.58.51-1.12,1.35-1.6,2.51-.49,1.17-.73,2.11-.73,2.83,0,.19.04.37.13.54.09.17.24.26.45.26.53,0,1.27-.56,2.22-1.66.95-1.11,1.72-2.13,2.33-3.07Z"/>
          <path class="cls-1" d="M148.04,36.07c-.67.19-1.33.29-1.97.29-1.06,0-1.81-.23-2.24-.7s-.65-.98-.65-1.55c0-.35.06-.85.19-1.49l1.1-5.5h-1.66l.4-1.83h1.62l.37-1.83,3-.4-.44,2.23h2.25l-.36,1.83h-2.25l-1.05,5.3c-.09.41-.13.73-.13.97,0,.38.11.64.34.79.23.15.46.22.69.22.39,0,.78-.08,1.18-.25l-.39,1.92Z"/>
          <path class="cls-1" d="M150.02,36.16l2.17-10.88h2.94l-2.18,10.88h-2.93ZM152.56,23.45l.52-2.57h2.93l-.52,2.57h-2.93Z"/>
          <path class="cls-1" d="M159.63,36.41c-1.24,0-2.23-.34-2.98-1.01-.74-.67-1.11-1.55-1.11-2.63,0-1.27.34-2.55,1.03-3.83.69-1.28,1.55-2.25,2.6-2.91,1.05-.67,2.21-1,3.48-1s2.32.34,3.05,1.01c.73.67,1.1,1.55,1.1,2.63,0,1.28-.34,2.55-1.03,3.82-.68,1.27-1.54,2.24-2.57,2.91-1.03.67-2.22,1.01-3.58,1.01ZM160.26,34.51c.67,0,1.25-.24,1.75-.71.5-.47.91-1.14,1.23-1.99.32-.86.49-1.73.49-2.62,0-.74-.14-1.3-.43-1.68-.29-.38-.7-.57-1.24-.57-.62,0-1.18.23-1.69.7-.51.47-.92,1.13-1.25,1.99-.33.86-.49,1.74-.49,2.65,0,.73.15,1.28.44,1.66.29.38.69.57,1.2.57Z"/>
          <path class="cls-1" d="M167.28,36.16l2.17-10.88h2.93l-.9,4.52c.78-1.46,1.63-2.62,2.55-3.48.92-.86,1.84-1.29,2.78-1.29.54,0,1,.18,1.37.55.37.36.56.91.56,1.63,0,.4-.05.83-.14,1.3l-1.54,7.66h-2.93l1.49-7.46c.03-.14.05-.28.05-.42,0-.37-.14-.56-.42-.56-.46,0-1.13.54-2.01,1.63-.88,1.08-1.64,2.15-2.3,3.2l-.73,3.61h-2.93Z"/>
          <path class="cls-1" d="M77,56.54l2.92-14.67h3.05l-1.19,5.99h6.06l1.19-5.99h3.04l-2.91,14.67h-3.05l1.33-6.66h-6.06l-1.33,6.66h-3.05Z"/>
          <path class="cls-1" d="M98.12,56.54l.9-4.52c-.73,1.45-1.53,2.61-2.38,3.47-.86.86-1.72,1.29-2.6,1.29-.51,0-.94-.18-1.29-.54-.35-.36-.53-.91-.53-1.64,0-.39.05-.82.15-1.29l1.64-7.66h2.93l-1.58,7.46c-.03.14-.04.26-.04.38,0,.36.12.54.37.54.42,0,1.02-.53,1.81-1.6.78-1.06,1.47-2.12,2.08-3.17l.72-3.61h2.94l-2.18,10.88h-2.93Z"/>
          <path class="cls-1" d="M104.17,56.54l3.12-15.65h2.93l-1.85,9.29c.7-1.35,1.54-2.48,2.51-3.39s1.91-1.37,2.8-1.37c.7,0,1.26.28,1.68.85.42.57.62,1.18.62,1.83,0,1.32-.41,2.72-1.24,4.23-.83,1.5-1.78,2.62-2.86,3.36-1.08.74-2.15,1.1-3.23,1.1-.21,0-.45-.02-.71-.06-.26-.04-.54-.1-.85-.18h-2.93ZM107.85,52.78l-.36,1.8c.24.12.47.21.7.27.23.06.46.09.68.09.59,0,1.19-.26,1.77-.78.59-.52,1.12-1.36,1.61-2.53.49-1.17.73-2.12.73-2.85,0-.21-.04-.4-.13-.57-.09-.16-.24-.25-.46-.25-.52,0-1.25.56-2.21,1.69-.96,1.13-1.74,2.17-2.34,3.12Z"/>
        </g>
        <path class="cls-1" d="M75.23,61.71h106.37c.18,0,.33-.15.33-.33s-.15-.33-.33-.33h-106.37c-.18,0-.33.15-.33.33s.15.33.33.33"/>
        <g>
          <path class="cls-1" d="M75.6,68.68l-.03-.03-.31.2c-.11.06-.23.1-.36.1-.14,0-.31-.04-.49-.17l-.6-.51c-.11-.14-.19-.23-.19-.3s.04-.11.1-.11.1.07.4.07c.26,0,.59-.14.87-.31.57-.39,1.1-.91,1.36-1.29.26-.46.4-.8.54-.8.09,0,.17.13.21.4.06.41.11.91.13,1.14-.01.19-.06.34-.29.56l-.9.73-.97,2.44.03.03c.84-1.03,4.7-5.28,8.24-5.28,1.13,0,2.63.64,2.63,2.57,0,2.47-3.11,5.46-7.06,5.46-2.6,0-3.53-1.34-3.53-1.57,0-.1.04-.17.14-.17.27,0,.59,1.4,3.36,1.4,3.5,0,5.88-2.68,5.88-4.53,0-.99-.63-2.13-2.33-2.13-2.8,0-6.14,3.04-7.68,5.11-1.07,2.77-2,4.9-2.57,4.9-.39,0-.71-.23-.71-.57,0-.53,1.44-2.73,3-4.56l1.11-2.77Z"/>
          <path class="cls-1" d="M86.49,71.39c.2-.21.36-.37.49-.37.14,0,.26.07.26.24,0,.27-.91,1.01-.91,1.54,0,.36.37.59.7.59.5,0,1-.53,1.53-1,.67-.77.91-1.1,1.11-1.1.13,0,.24.04.24.21,0,.29-.67.74-.67,1.24,0,.27.21.59.63.59.47,0,1.2-.66,1.33-.66.1,0,.11.06.11.13,0,.13-.14.23-.97.77-.51.33-1.07.61-1.29.61-.46,0-.8-.76-.84-1.14-.74.64-1.3,1.2-1.9,1.2-.51,0-.93-.47-.93-1.14,0-.29.04-.46.07-.54l1.04-1.17Z"/>
          <path class="cls-1" d="M91.79,72.48c-.09.06-.16.07-.2.07-.07,0-.11-.06-.11-.11,0-.07.06-.1.1-.14.43-.33.5-.36.87-.66-.03-.03-.06-.07-.06-.17,0-.14.17-.26.64-.66.16-.13.4-.34.69-.34.21,0,.33.07.33.24s-.19.31-.23.36c-.11.09-.17.13-.17.17s.04.06.07.09c.4.27.84.53.84,1.04,0,.63-.87,1.89-2.09,1.89-.3,0-.9-.06-.9-.69,0-.46.43-.57.54-.57.6,0,.47.83.86.83s.73-.53.73-1c0-.17,0-.36-.44-.66l-.56-.37-.91.69Z"/>
          <path class="cls-1" d="M99.38,67.2c0,.41-.34,1.83-1.56,3-.43.41-1.01.96-1.27,1.27-.19.23-.4.54-.4.81,0,.13.09.79.46.79.44,0,1.9-1.84,2.49-1.84.39,0,.46.24.46,2.06,0,.33.17.36.3.36.31,0,.64-.24.93-.46.3-.23.4-.31.5-.31.07,0,.11.04.11.11s-.09.1-.26.27c-.2.19-1.57,1.24-2.01,1.24-.5,0-.6-.61-.6-1.2v-.77c0-.24-.06-.44-.17-.44-.13,0-.29.19-.5.37l-1.39,1.27c-.44.41-.57.46-.83.46-.34,0-.43-.49-.43-1.07,0-.51.07-.63,1.06-2.21.4-.64,1.36-2.17,1.83-2.84.81-1.16.89-1.16,1.04-1.16.2,0,.24.16.24.3Z"/>
          <path class="cls-1" d="M102.97,71.13c.13-.19.23-.2.39-.2.13,0,.19.09.19.17,0,.1-.1.2-.3.41-.31.36-.71.83-.71,1.19,0,.41.26.69.71.69.4,0,.76-.19,1.24-.53.33-.23.41-.34.49-.34.06,0,.1.03.1.14,0,.1-.21.29-.4.43-.57.44-1.37,1.16-2.19,1.16-.64,0-.9-.4-.9-1,0-.23.04-.47.11-.71l1.27-1.4ZM104.4,69.1c.21.17.41.11.41.24,0,.11-.36.47-.84.47-.4,0-.7-.3-.7-.51,0-.2.43-.6.6-.6.21,0,.3.21.53.4Z"/>
          <path class="cls-1" d="M105.6,72.25c.14-.26,1.16-1.23,1.53-1.23.13,0,.16.07.16.14,0,.11-.23.36-.47.69-.24.33-.47.86-.47,1.1,0,.1.01.19.1.19.1,0,.44-.33.53-.4.44-.36,1.5-1.43,2.1-1.43.4,0,.46.51.5,1.01.07.8.13,1.01.41,1.01.33,0,1.19-.81,1.33-.81.09,0,.11.04.11.1,0,.13-.87.9-1.57,1.31-.17.1-.37.26-.67.26-.44,0-.54-.71-.56-1.04-.07-.77-.1-.99-.36-.99-.27,0-.47.2-1.43,1.04-.59.53-1.13,1.04-1.37,1.04-.17,0-.24-.14-.24-.54,0-.63.13-1.04.37-1.46Z"/>
          <path class="cls-1" d="M114.61,71.1c.2,0,.27.01.39.03.09-.2.24-.46.5-.46.16,0,.23.2.23.31,0,.09-.06.31-.14.46.13.09.56.43.56,1.21,0,.33-.09.56-.16.74h.01s.94-.57,1.29-.8c.1-.07.14-.1.2-.1s.1.04.1.11-.04.1-.07.13c-.16.13-.89.66-1.34.97l-.44.31c-.17.13-.26.83-1.39,2.06-.89.99-1.66,1.61-1.83,1.61-.13,0-.23-.34-.23-.47,0-.69,1.14-1.64,1.67-2.09l.74-.61c.49-.43.76-.66.76-1.2,0-.36-.17-.6-.33-.8-.04.04-.07.07-.11.07-.06,0-.07-.04-.09-.07-1.21,1.1-1.64,1.49-2.31,1.49-.6,0-.93-.47-.93-.9,0-1.13,1.97-2.01,2.93-2.01ZM114.9,71.39c-.09-.01-.16-.03-.31-.03-.73,0-1.7.4-1.7,1.24,0,.11.1.47.56.47.54,0,.97-.37,1.39-.74-.03-.1-.06-.19-.06-.31,0-.19.04-.41.13-.63Z"/>
          <path class="cls-1" d="M120.91,72.76c-.06-.09-.1-.17-.1-.27,0-.2.91-1.37,1.96-2.5.91-.9,1.31-1.87,1.31-2.93,0-.86-.51-1.19-.99-1.19-.21,0-.34-.03-.34-.16,0-.09.07-.19.36-.19.99,0,1.4.74,1.4,1.69,0,.6-.11,1.01-.21,1.33h.06c1.2-1.01,3.73-3.13,5.7-3.13,1,0,1.44.63,1.44,1.24-.03,1.67-2.87,2.48-2.87,2.66,0,.09.39.09,1.06.09,1.99,0,3.21.51,3.21,1.64,0,.19-.01.31-.03.43l.4-.1.11-.03c.1,0,.14.06.14.16,0,.09-.09.14-.21.19l-.53.13c-.16.33-.39.79-.96,1.23-1.81,1.63-4.36,2.31-5.66,2.31-1.4,0-2.26-.37-2.26-.9,0-.43.46-.87,2.5-1.39l5.28-1.34c-.09-1.03-1.19-1.26-2.29-1.3-1.16-.07-2.33,0-2.33-.49,0-.8,3.5-1.2,3.64-3.07,0-.64-.51-1.03-1.1-1.03-.99,0-3.08.89-6.16,4.96-.53.71-1.13,1.5-1.59,2.3-.14.26-.23.41-.39.41-.11,0-.17-.1-.27-.24l-.31-.51ZM127.97,73.05c-2.69.76-3.29,1.23-3.29,1.53s.56.44,1.5.44c1.67,0,5.38-1.37,5.51-2.97l-3.73,1Z"/>
          <path class="cls-1" d="M136.64,71.13c.04-.1.09-.2.14-.2.1,0,.16.09.3.19.4.27.8.53,1.39.53.33,0,.46-.09.56-.09.04,0,.06.03.06.07,0,.09-.53.53-1.44.61-.27,1.21-1.5,2-2.7,2-.71,0-1.19-.47-1.19-.99,0-1.56,2.19-2.24,2.51-2.24.07,0,.11.03.11.11s-.07.11-.36.2c-.59.21-1.24.5-1.24,1.21,0,.59.69.84,1.17.84.69,0,1.2-.49,1.44-1.14-.36,0-.7-.1-.9-.17-.14-.06-.21-.09-.21-.14s.01-.1.04-.14l.31-.66Z"/>
          <path class="cls-1" d="M140.27,71.39c.2-.21.36-.37.49-.37.14,0,.26.07.26.24,0,.27-.91,1.01-.91,1.54,0,.36.37.59.7.59.5,0,1-.53,1.53-1,.67-.77.91-1.1,1.11-1.1.13,0,.24.04.24.21,0,.29-.67.74-.67,1.24,0,.27.21.59.63.59.47,0,1.2-.66,1.33-.66.1,0,.11.06.11.13,0,.13-.14.23-.97.77-.51.33-1.07.61-1.29.61-.46,0-.8-.76-.84-1.14-.74.64-1.3,1.2-1.9,1.2-.51,0-.93-.47-.93-1.14,0-.29.04-.46.07-.54l1.04-1.17Z"/>
          <path class="cls-1" d="M145.64,72.25c.14-.26,1.16-1.23,1.53-1.23.13,0,.16.07.16.14,0,.11-.23.36-.47.69-.24.33-.47.86-.47,1.1,0,.1.01.19.1.19.1,0,.44-.33.53-.4.44-.36,1.5-1.43,2.1-1.43.4,0,.46.51.5,1.01.07.8.13,1.01.41,1.01.33,0,1.19-.81,1.33-.81.09,0,.11.04.11.1,0,.13-.87.9-1.57,1.31-.17.1-.37.26-.67.26-.44,0-.54-.71-.56-1.04-.07-.77-.1-.99-.36-.99-.27,0-.47.2-1.43,1.04-.59.53-1.13,1.04-1.37,1.04-.17,0-.24-.14-.24-.54,0-.63.13-1.04.37-1.46Z"/>
          <path class="cls-1" d="M151.78,73.23c0-1.29,1.96-2.21,3.03-2.21.03,0,.5,0,.5.2,0,.14-.06.19-.17.19-.09,0-.19-.04-.4-.04-.63,0-1.84.76-1.84,1.47,0,.1,0,.47.53.47s1.17-.66,1.83-1.26c.41-.39.49-1.27,1.47-3.07.09-.16,1.17-2.07,1.51-2.07.16,0,.2.2.2.5,0,.8-.34,1.59-1.27,2.66-.54.63-1.27,1.33-1.27,2.21s.56,1.11.93,1.11c.57,0,1.13-.51,1.41-.74.06-.04.13-.1.19-.1s.11.07.11.14c0,.06-.07.13-.13.19-.49.4-1.49,1.37-2.27,1.37-.36,0-1.01-.21-1.01-1.11,0-.16.04-.41.1-.67l-.03-.03c-.49.49-1.64,1.81-2.44,1.81-.1,0-.97,0-.97-1.01Z"/>
          <path class="cls-1" d="M161.75,71.23c.31,0,.43.04.59.1.07-.29.16-.57.44-.57.2,0,.34.17.34.4,0,.06-.1.47-.1.61s.49.23.49.86v.39c0,.16.06.23.17.23.39,0,1.36-.73,1.44-.73.06,0,.1.09.1.16,0,.13-1.73,1.51-2.56,1.51-.29,0-.53-.17-.53-.47,0-.51.51-.87.51-1.21,0-.11-.06-.16-.13-.16-.06,0-.14.09-.23.16-.67.49-1.99,1.74-2.77,1.74-.43,0-.77-.33-.77-.77,0-.99,1.64-2.24,3-2.24ZM162.34,71.93c0-.23-.04-.44-.4-.44-1.19,0-1.9.93-1.9,1.37,0,.13.1.44.44.44.39,0,1.86-.9,1.86-1.37Z"/>
          <path class="cls-1" d="M166.07,71.92l-.41.39s-.1.07-.17.07-.1-.03-.11-.1c0-.07.14-.19.2-.24l.26-.26c-.06-.04-.11-.11-.11-.21,0-.23.91-1.16,1.13-1.16.11,0,.23.06.23.23,0,.16-.23.41-.34.54.73.41.93.57.93.81,0,.43-.64.56-.64.91,0,.3.44.49.74.49.76,0,1.64-.96,1.79-.96.04,0,.11.01.11.09,0,.09-.41.5-.96.91-.53.41-1.16.81-1.66.81-.27,0-.46-.11-.66-.27-.19-.17-.33-.37-.33-.54,0-.31.84-.69.84-.91,0-.07-.07-.16-.2-.23l-.63-.37Z"/>
          <path class="cls-1" d="M171.32,71.13c.13-.19.23-.2.39-.2.13,0,.19.09.19.17,0,.1-.1.2-.3.41-.31.36-.71.83-.71,1.19,0,.41.26.69.71.69.4,0,.76-.19,1.24-.53.33-.23.41-.34.49-.34.06,0,.1.03.1.14,0,.1-.21.29-.4.43-.57.44-1.37,1.16-2.19,1.16-.64,0-.9-.4-.9-1,0-.23.04-.47.11-.71l1.27-1.4ZM172.75,69.1c.21.17.41.11.41.24,0,.11-.36.47-.84.47-.4,0-.7-.3-.7-.51,0-.2.43-.6.6-.6.21,0,.3.21.53.4Z"/>
          <path class="cls-1" d="M177.02,71.29c0,.81-1.04,1.23-2.43,1.4.16.73,1.19.7,1.36.7,1.03,0,1.93-.76,2.06-.76.09,0,.09.06.09.11,0,.09-.1.2-.21.27-.34.23-.66.5-1.3.84-.39.21-.7.39-1.31.39-.89,0-1.49-.56-1.49-1.21,0-1.04,1.76-2.27,2.7-2.27.29,0,.54.23.54.53ZM175.94,71.28c-.59,0-1.16.61-1.34,1.16.41-.04,1.57-.16,1.57-.87,0-.04-.03-.29-.23-.29Z"/>
          <path class="cls-1" d="M178.64,72.48c-.09.06-.16.07-.2.07-.07,0-.11-.06-.11-.11,0-.07.06-.1.1-.14.43-.33.5-.36.87-.66-.03-.03-.06-.07-.06-.17,0-.14.17-.26.64-.66.16-.13.4-.34.69-.34.21,0,.33.07.33.24s-.19.31-.23.36c-.11.09-.17.13-.17.17s.04.06.07.09c.4.27.84.53.84,1.04,0,.63-.87,1.89-2.09,1.89-.3,0-.9-.06-.9-.69,0-.46.43-.57.54-.57.6,0,.47.83.86.83s.73-.53.73-1c0-.17,0-.36-.44-.66l-.56-.37-.91.69Z"/>
        </g>
      </g>
      <g>
        <g>
          <path class="cls-1" d="M48.94,8.39C40.3-2.25,23.46-2.85,11.32,7.04-.81,16.92-3.64,33.56,5.01,44.19c8.64,10.63,25.49,11.24,37.62,1.35,12.13-9.88,14.96-26.52,6.31-37.15M40.45,42.67c-11.36,9.25-26.22,9.76-33.21,1.17C.23,35.22,3.77,20.76,15.11,11.51c11.35-9.24,26.21-9.76,33.21-1.16,6.98,8.6,3.47,23.07-7.88,32.32"/>
          <path class="cls-1" d="M43.65,19.53c2.92-4.04,1.31-13.41-.53-10.57-1.58,2.47-9.6,7.73-16.67,11.97,0,0,1.73-4.51,3.2-8.14,1.49-3.63-5.17-2.11-9.02-.15-.36.19-3.43,2.09-3.69,3.29,1.6-.28,2.54-.39,2.35.03-.11.29-.24.58-.37.89-1.18,2.79-2.77,6.59-4.37,10.35-3.7,10.27-1.84,14.91-1.84,14.91l9.88.41s-2.47-1.05-1.43-6.7c1.03-5.56,2.55-6.4,2.88-6.52.58,2.38,4.19,12,12.41,17.6,9.96,6.77,16.83,3.39,19.5.68,2.66-2.71,2.66-8.12,2.66-8.12,0,0-7.58,6.09-15.29.83-5.32-3.62-12.69-10.11-15.52-12.56.48-.2,10.86-1.31,15.84-8.19"/>
        </g>
        <g>
          <path class="cls-3" d="M32.71,61.01H9.7c-1.42,0-2.57-1.15-2.57-2.57s1.15-2.57,2.57-2.57h23.01c1.42,0,2.57,1.15,2.57,2.57s-1.15,2.57-2.57,2.57Z"/>
          <path class="cls-1" d="M30.13,67.08H12.56c-1.17,0-2.12-.95-2.12-2.12s.95-2.12,2.12-2.12h17.56c1.17,0,2.12.95,2.12,2.12s-.95,2.12-2.12,2.12Z"/>
          <path class="cls-2" d="M11.94,70.83v.4c0,1.06.86,1.92,1.92,1.92h.26c.69,0,1.27.4,1.66.96.77,1.11,2.81,1.9,5.22,1.9s4.45-.79,5.22-1.9c.39-.56.98-.96,1.66-.96h.35c1.06,0,1.92-.86,1.92-1.92v-.4c0-1.06-.86-1.92-1.92-1.92h-14.37c-1.06,0-1.92.86-1.92,1.92Z"/>
        </g>
      </g>
    </g>
  </g>
</svg>