<?xml version="1.0" encoding="UTF-8"?>
<svg id="Layer_2" data-name="Layer 2" xmlns="http://www.w3.org/2000/svg" viewBox="0 0 151.56 34.53">
  <defs>
    <style>
      .cls-1 {
        fill: #ed1c24;
      }

      .cls-2 {
        fill: #8a181a;
      }
    </style>
  </defs>
  <g id="Layer_1-2" data-name="Layer 1">
    <g>
      <path class="cls-2" d="M7.25,26.42c-.44-1.68.03-3.52,1.26-5.35-2.31,2.25-3.42,4.62-2.86,6.72,1.16,4.39,9.22,6.1,18.71,4.26-8.92.83-15.95-1.25-17.1-5.62"/>
      <path class="cls-1" d="M23.81,10.97C10.79,14.42,1.55,22.14,3.16,28.23c.94,3.55,5.36,5.76,11.46,6.3-7.61-.02-13.36-2.33-14.44-6.43-1.61-6.09,7.63-13.82,20.65-17.26,5.43-1.44,10.65-1.9,15.02-1.51-3.68,0-7.8.52-12.04,1.64"/>
      <g>
        <path class="cls-2" d="M24.59,20.36l.94,1.9h-9.31s-.94-1.9-.94-1.9h9.31ZM24.76,24.14l-.63,1.9h-6.01c-.27,0-.48.07-.61.2-.13.13-.22.29-.27.48-.05.19-.07.4-.07.61,0,.22,0,.42,0,.6v1.9s-1.9,0-1.9,0v-2.84c0-.39.08-.76.22-1.11.15-.35.35-.65.61-.9.25-.26.55-.46.9-.61.35-.15.71-.23,1.1-.23h6.64Z"/>
        <path class="cls-2" d="M34.21,20.36c.39,0,.76.08,1.1.23.35.15.65.35.9.61.25.25.46.55.61.9.15.35.23.71.23,1.1v6.63s-1.9,0-1.9,0v-2.85h-5.54s-.94-1.9-.94-1.9h6.48v-1.89c0-.26-.09-.48-.27-.67-.18-.18-.4-.27-.67-.27h-5.15c-.26,0-.49.09-.67.27s-.27.4-.27.67v6.63s-1.9,0-1.9,0v-6.63c0-.39.07-.76.22-1.1.15-.35.35-.65.61-.9.25-.25.55-.46.9-.61.35-.15.71-.23,1.1-.23h5.15Z"/>
        <path class="cls-2" d="M40.04,20.36v9.46s-1.9,0-1.9,0v-9.46s1.9,0,1.9,0ZM46.34,26.05h-5.66s.03-1.9.03-1.9h5.63v-3.79s1.9,0,1.9,0v9.46s-1.9,0-1.9,0v-3.78Z"/>
        <path class="cls-2" d="M57.51,20.36c.39,0,.76.08,1.1.23s.65.35.9.61c.25.25.46.55.61.9.15.35.23.71.23,1.1v6.63s-1.9,0-1.9,0v-2.85h-5.54s-.94-1.9-.94-1.9h6.48v-1.89c0-.26-.09-.48-.27-.67-.18-.18-.4-.27-.67-.27h-5.15c-.26,0-.49.09-.67.27s-.27.4-.27.67v6.63s-1.9,0-1.9,0v-6.63c0-.39.07-.76.22-1.1.15-.35.35-.65.61-.9.25-.25.55-.46.9-.61.35-.15.71-.23,1.1-.23h5.15Z"/>
        <path class="cls-2" d="M71.52,23.2c0,.39-.08.76-.23,1.1-.15.35-.35.65-.61.91-.25.26-.55.46-.9.61-.35.15-.71.23-1.1.23l2.84,3.78h-2.37s-2.84-3.78-2.84-3.78h-2.17c-.26,0-.49.09-.67.27s-.27.4-.27.67v2.84s-1.9,0-1.9,0v-2.84c0-.39.08-.76.23-1.1.15-.35.35-.65.61-.9s.55-.46.9-.61c.35-.15.71-.23,1.1-.23h4.54c.26,0,.49-.09.67-.28.18-.19.27-.41.27-.67s-.09-.49-.27-.67c-.18-.18-.4-.27-.67-.27h-6.44s-.94-1.9-.94-1.9h7.38c.39,0,.76.08,1.1.23s.65.35.9.61c.25.25.46.55.61.9.15.35.23.71.23,1.1Z"/>
        <path class="cls-2" d="M74.14,20.36v9.46s-1.9,0-1.9,0v-9.46s1.9,0,1.9,0Z"/>
      </g>
      <g>
        <path class="cls-1" d="M88.55,20.36c.39,0,.76.08,1.1.23.35.15.65.35.9.61.25.25.46.55.61.9.15.35.23.71.23,1.1v6.63s-1.9,0-1.9,0v-2.85h-5.54s-.94-1.9-.94-1.9h6.48v-1.89c0-.26-.09-.48-.27-.67-.18-.18-.4-.27-.67-.27h-5.16c-.26,0-.49.09-.67.27s-.27.4-.27.67v6.63s-1.9,0-1.9,0v-6.63c0-.39.08-.76.23-1.1.15-.35.35-.65.61-.9.25-.25.55-.46.9-.61.35-.15.71-.23,1.1-.23h5.16Z"/>
        <path class="cls-1" d="M102.3,21.78c0,.95-.05,1.8-.14,2.53-.09.73-.27,1.41-.55,2.03-.27.62-.66,1.2-1.15,1.76-.5.55-1.14,1.13-1.95,1.73h-2.36c-.81-.6-1.46-1.18-1.96-1.73-.5-.55-.88-1.14-1.15-1.76-.27-.62-.46-1.29-.55-2.03-.09-.73-.14-1.58-.14-2.53v-1.42s1.9,0,1.9,0c0,.62,0,1.19,0,1.71,0,.52.01,1.02.05,1.49.04.47.12.91.23,1.32.11.41.29.81.52,1.19.23.39.53.76.91,1.13.37.37.85.74,1.42,1.11.6-.45,1.1-.87,1.49-1.28.39-.41.7-.84.93-1.3s.39-.96.48-1.51c.09-.55.14-1.21.14-1.96h-1.89s-.94-1.9-.94-1.9h4.73s0,1.42,0,1.42Z"/>
        <path class="cls-1" d="M105.11,20.36v9.46s-1.9,0-1.9,0v-9.46s1.9,0,1.9,0Z"/>
        <path class="cls-1" d="M114.38,20.36c.39,0,.76.08,1.1.23.35.15.65.35.9.61.25.25.46.55.61.9.15.35.23.71.23,1.1v6.63s-1.9,0-1.9,0v-2.85h-5.54s-.94-1.9-.94-1.9h6.48v-1.89c0-.26-.09-.48-.27-.67-.18-.18-.4-.27-.67-.27h-5.16c-.26,0-.49.09-.67.27s-.27.4-.27.67v6.63s-1.9,0-1.9,0v-6.63c0-.39.08-.76.23-1.1.15-.35.35-.65.61-.9.25-.25.55-.46.9-.61.35-.15.71-.23,1.1-.23h5.16Z"/>
        <path class="cls-1" d="M117.49,20.36h7.6s.94,1.9.94,1.9h-3.19v7.57s-1.9,0-1.9,0v-7.57h-2.5s-.95-1.9-.95-1.9Z"/>
        <path class="cls-1" d="M128.21,20.36v9.46s-1.9,0-1.9,0v-9.46s1.9,0,1.9,0Z"/>
        <path class="cls-1" d="M137.44,20.36c.39,0,.76.08,1.1.23s.65.35.9.61c.25.25.46.55.61.9.15.35.23.71.23,1.1v3.79c0,.39-.08.76-.23,1.1-.15.35-.35.65-.61.9s-.55.46-.9.61-.71.23-1.1.23h-5.11c-.39,0-.76-.08-1.1-.23-.35-.15-.65-.35-.9-.61-.25-.25-.46-.55-.61-.9-.15-.35-.23-.71-.23-1.1v-3.79c0-.39.08-.76.23-1.1.15-.35.35-.65.61-.9.25-.25.55-.46.9-.61.35-.15.71-.23,1.1-.23h5.11ZM138.38,23.2c0-.26-.09-.49-.27-.67-.18-.18-.4-.27-.67-.27h-5.11c-.26,0-.49.09-.67.27s-.27.4-.27.67v3.79c0,.26.09.49.27.67.18.18.4.27.67.27h5.11c.26,0,.49-.09.67-.27s.27-.4.27-.67v-3.79Z"/>
        <path class="cls-1" d="M146.82,20.37h4.73s0,9.45,0,9.45h-1.9s-6.61-6.75-6.61-6.75v6.75s-1.9,0-1.9,0v-9.45s1.9,0,1.9,0l6.61,6.72v-4.83h-1.9s-.94-1.9-.94-1.9Z"/>
      </g>
      <g>
        <path class="cls-2" d="M54.28.01c-4.38-.18-8.02,1.73-8.13,4.28-.02.43.05.87.26,1.29.13.28.46.54.53.82.07.28-.32.4-.58.6-1.56,1.22-2.87.47-3.46.13-.52-.3-.68-.59-.41-.97.32-.45.5-.9.52-1.39.09-2.17-2.86-4.06-6.59-4.21-3.73-.16-6.83,1.48-6.92,3.65-.03.66.23,1.29.69,1.85-.14-.29-.2-.6-.19-.91.08-1.83,2.89-3.2,6.26-3.06,3.38.14,6.06,1.74,5.99,3.57-.05,1.14-1.15,2.1-2.8,2.63.32.12.57.33.91.49,1.36.65.36,1.31-.02,1.51-.37.19-.79.37-1.29.41-.56.05-1.09-.1-1.64-.12-2.74-.11-5.02,1.08-5.08,2.68-.01.36.08.71.28,1.04-.02-.1-.03-.21-.03-.31.05-1.31,2.07-2.3,4.49-2.2,2.42.1,4.35,1.25,4.3,2.56-.03.61-.47,1.14-1.18,1.54,1.25-.46,2.12-1.22,1.97-2.11-.06-.36-.24-.73-.16-1.09.09-.38.61-.61,1.09-.82,1.07-.47,2.18.03,2.56.27.51.33,1.15.57,1.3,1.02.16.47-.16.92-.21,1.38-.04.42.08.86.36,1.25.1.15.23.29.37.43-.19-.29-.29-.61-.27-.93.06-1.46,2.37-2.55,5.15-2.43,2.78.12,4.99,1.4,4.93,2.85-.01.35-.16.67-.4.97.6-.49.97-1.09,1-1.75.06-1.43-1.67-2.94-4.12-3.35-.84-.14-1.77-.19-2.61-.09-.68.08-1.31.12-1.85-.21-.6-.36-1.16-.78-1.43-1.28-.28-.52.16-.83.75-1.14.31-.16.65-.35,1.08-.38.03,0,.07,0,.1,0,.11,0,.22,0,.32.02-1.71-.78-2.8-1.97-2.74-3.27.09-2.14,3.24-3.75,7.03-3.59,3.79.16,6.79,2.03,6.7,4.16-.04.88-.59,1.67-1.5,2.29,1.47-.78,2.4-1.89,2.45-3.16.11-2.55-3.36-4.76-7.74-4.95"/>
        <path class="cls-1" d="M52.16,16.65c-1.74-.07-3.17-.78-3.46-1.66-.05.12-.08.25-.09.37-.04,1.04,1.54,1.95,3.52,2.04,1.99.08,3.64-.7,3.68-1.74,0-.13-.01-.26-.06-.38-.37.85-1.85,1.44-3.59,1.36"/>
        <path class="cls-1" d="M54.14,7.21c-2.37-.1-4.31-1.13-4.71-2.42-.07.18-.11.36-.12.55-.06,1.53,2.08,2.86,4.79,2.97,2.7.11,4.96-1.04,5.02-2.56,0-.19-.02-.38-.08-.56-.51,1.24-2.53,2.11-4.9,2.01"/>
        <path class="cls-1" d="M36.92,15.2c-1.52-.06-2.76-.7-3.02-1.49-.05.11-.07.22-.08.34-.04.94,1.34,1.76,3.07,1.83,1.73.07,3.17-.63,3.21-1.57,0-.12-.01-.23-.05-.34-.32.76-1.62,1.3-3.13,1.23"/>
        <path class="cls-1" d="M40.5,5.59c0-.16-.02-.32-.07-.48-.45,1.06-2.25,1.81-4.37,1.72-2.11-.09-3.85-.98-4.21-2.08-.06.15-.1.31-.11.47-.05,1.31,1.86,2.45,4.28,2.55,2.41.1,4.42-.88,4.47-2.19"/>
        <polyline class="cls-2" points="32.54 12.48 32.54 12.48 31.67 14.46 32.63 12.78"/>
        <polyline class="cls-2" points="44.93 11.35 43.82 13.96 45.19 11.78"/>
        <polyline class="cls-2" points="45.9 11.82 43.68 16.53 46.15 12.25"/>
        <polyline class="cls-1" points="49.49 16.47 48.22 19.46 49.85 16.9"/>
        <polyline class="cls-1" points="54.99 16.16 54.15 18.16 55.24 16.44"/>
        <polyline class="cls-1" points="34.17 14.73 33.08 17.67 34.61 14.88"/>
        <polyline class="cls-1" points="53.55 7.22 52.01 10.71 53.86 7.32"/>
        <polyline class="cls-1" points="51.04 16.54 49.91 19.07 51.26 16.61"/>
        <polyline class="cls-1" points="54.71 7.79 53.59 10.32 54.93 7.86"/>
        <polyline class="cls-2" points="43.67 11.44 41.42 16.52 44.11 11.59"/>
        <polyline class="cls-1" points="32.24 6.39 31.19 10.21 32.71 6.8"/>
        <polyline class="cls-1" points="34.11 7.13 32.64 11.11 34.65 7.31"/>
      </g>
    </g>
  </g>
</svg>